<svg width="1440" height="1111" viewBox="0 0 1440 1111" fill="none" xmlns="http://www.w3.org/2000/svg">
<path d="M732.99 267.546C527.332 330.373 321.675 555.5 116.018 555.5C76.4371 555.5 36.8567 547.161 -1.99072 532.885V103.5H116.018H732.99H1349.96H1439.96V358.057C1232.65 303.197 912.529 212.699 732.99 267.546Z" fill="url(#paint0_linear_974_38959)"/>
<path d="M710.694 843.454C916.638 780.627 1122.58 555.5 1328.53 555.5C1368.16 555.5 1400.08 563.839 1438.98 578.115V1007.5H1328.53H710.694H92.8625H3.8595V880.5V753.5C211.46 808.36 530.906 898.301 710.694 843.454Z" fill="url(#paint1_linear_974_38959)"/>
<defs>
<linearGradient id="paint0_linear_974_38959" x1="858.352" y1="417" x2="858.352" y2="103.5" gradientUnits="userSpaceOnUse">
<stop stop-color="#F0F0FF"/>
<stop offset="1" stop-color="#F9F9FF" stop-opacity="0"/>
</linearGradient>
<linearGradient id="paint1_linear_974_38959" x1="585.158" y1="694" x2="585.158" y2="1007.5" gradientUnits="userSpaceOnUse">
<stop stop-color="#F0F0FF"/>
<stop offset="1" stop-color="#F9F9FF"/>
</linearGradient>
</defs>
</svg>
