<svg width="27" height="25" viewBox="0 0 27 25" fill="none" xmlns="http://www.w3.org/2000/svg">
<path d="M22.4625 4.28289C20.7901 3.51553 18.9968 2.95016 17.1217 2.62636C17.0875 2.62011 17.0534 2.63573 17.0358 2.66696C16.8052 3.07718 16.5497 3.61235 16.3708 4.03299C14.354 3.73106 12.3475 3.73106 10.3721 4.03299C10.1932 3.603 9.9284 3.07718 9.69672 2.66696C9.67913 2.63677 9.64502 2.62115 9.61087 2.62636C7.7368 2.94913 5.94341 3.51449 4.26998 4.28289C4.2555 4.28914 4.24308 4.29956 4.23484 4.31308C0.833156 9.39513 -0.0987075 14.3523 0.358433 19.2479C0.360502 19.2719 0.373947 19.2948 0.392564 19.3093C2.6369 20.9575 4.81092 21.9581 6.94457 22.6214C6.97871 22.6318 7.01489 22.6193 7.03662 22.5912C7.54134 21.9019 7.99125 21.1752 8.377 20.4109C8.39977 20.3662 8.37804 20.313 8.33151 20.2953C7.61788 20.0246 6.93836 19.6946 6.28471 19.3198C6.23301 19.2896 6.22887 19.2156 6.27643 19.1802C6.41398 19.0771 6.55157 18.9699 6.68291 18.8616C6.70668 18.8418 6.73979 18.8377 6.76773 18.8502C11.0619 20.8107 15.7109 20.8107 19.9545 18.8502C19.9824 18.8366 20.0155 18.8408 20.0403 18.8606C20.1717 18.9689 20.3092 19.0771 20.4478 19.1802C20.4954 19.2156 20.4923 19.2896 20.4406 19.3198C19.7869 19.7019 19.1074 20.0246 18.3927 20.2943C18.3462 20.312 18.3255 20.3662 18.3483 20.4109C18.7423 21.1741 19.1922 21.9009 19.6876 22.5901C19.7083 22.6193 19.7455 22.6318 19.7797 22.6214C21.9237 21.9581 24.0977 20.9575 26.342 19.3093C26.3617 19.2948 26.3741 19.2729 26.3762 19.249C26.9233 13.589 25.4598 8.67255 22.4967 4.31412C22.4894 4.29956 22.477 4.28914 22.4625 4.28289ZM9.01827 16.267C7.72542 16.267 6.66015 15.08 6.66015 13.6224C6.66015 12.1647 7.70476 10.9778 9.01827 10.9778C10.3421 10.9778 11.3971 12.1751 11.3764 13.6224C11.3764 15.08 10.3317 16.267 9.01827 16.267ZM17.737 16.267C16.4442 16.267 15.3789 15.08 15.3789 13.6224C15.3789 12.1647 16.4235 10.9778 17.737 10.9778C19.0609 10.9778 20.1158 12.1751 20.0951 13.6224C20.0951 15.08 19.0609 16.267 17.737 16.267Z" fill="#406AFF"/>
</svg>
